<svg width="40" height="40" viewBox="0 0 40 40" fill="none" xmlns="http://www.w3.org/2000/svg">
<path fill-rule="evenodd" clip-rule="evenodd" d="M39.2022 20.4561C39.2034 19.0844 39.082 17.7152 38.8393 16.3651H20V24.1011H30.764C30.5419 25.325 30.0736 26.4911 29.3876 27.5288C28.7016 28.5665 27.8121 29.4542 26.773 30.1381V35.1572H33.2371C37.0191 31.6741 39.2011 26.5471 39.2011 20.4561H39.2022Z" fill="#3E82F1"/>
<path fill-rule="evenodd" clip-rule="evenodd" d="M20 40C25.4 40 29.9281 38.209 33.2371 35.1551L26.773 30.136C24.982 31.336 22.691 32.0461 20 32.0461C14.791 32.0461 10.3809 28.5281 8.80898 23.8H2.12695V28.9888C3.79299 32.3003 6.34657 35.0835 9.50263 37.0279C12.6587 38.9723 16.293 40.0013 20 40Z" fill="#32A753"/>
<path fill-rule="evenodd" clip-rule="evenodd" d="M8.81007 23.8012C7.9726 21.3371 7.9726 18.6653 8.81007 16.2012V11.0192H2.12692C0.728309 13.8069 0 16.8828 0 20.0017C0 23.1207 0.728309 26.1966 2.12692 28.9843L8.81007 23.8012Z" fill="#F9BB00"/>
<path d="M2.12695 11.0191L8.8101 16.2011C10.3831 11.473 14.7921 7.95506 20.0011 7.95506C22.9382 7.95506 25.5741 8.96629 27.6472 10.9461L33.3843 5.20899C29.9202 1.98202 25.3932 1.22836e-06 20 1.22836e-06C16.2921 -0.00129831 12.6568 1.02856 9.50054 2.97447C6.34426 4.92039 3.79129 7.70569 2.12695 11.0191Z" fill="#E74133"/>
</svg>
