<svg width="30" height="30" viewBox="0 0 30 30" fill="none" xmlns="http://www.w3.org/2000/svg">
<path d="M15 2.25955L18.279 8.9035C18.5703 9.49378 19.1334 9.90292 19.7849 9.99758L27.1169 11.063L21.8114 16.2346C21.34 16.694 21.1249 17.356 21.2362 18.0048L22.4886 25.3072L15.9307 21.8595C15.348 21.5532 14.652 21.5532 14.0693 21.8595L7.51135 25.3072L8.76381 18.0048C8.87509 17.3561 8.65999 16.694 8.18862 16.2346L2.88312 11.063L10.2151 9.99758C10.8666 9.90292 11.4297 9.49379 11.721 8.9035L15 2.25955Z" stroke="#FCC141" stroke-width="2"/>
<mask id="mask0_1_690" style="mask-type:alpha" maskUnits="userSpaceOnUse" x="1" y="1" width="28" height="26">
<path d="M14.1033 1.81698C14.4701 1.07374 15.5299 1.07374 15.8967 1.81699L19.1757 8.46093C19.3214 8.75607 19.6029 8.96064 19.9287 9.00797L27.2607 10.0734C28.0809 10.1926 28.4084 11.2005 27.8149 11.7791L22.5094 16.9507C22.2737 17.1804 22.1662 17.5114 22.2218 17.8358L23.4743 25.1382C23.6144 25.9551 22.7569 26.5781 22.0233 26.1924L15.4653 22.7446C15.174 22.5915 14.826 22.5915 14.5347 22.7446L7.9767 26.1924C7.24307 26.5781 6.38563 25.9551 6.52574 25.1382L7.7782 17.8358C7.83384 17.5114 7.72629 17.1804 7.49061 16.9507L2.1851 11.7791C1.59159 11.2005 1.91909 10.1926 2.73931 10.0734L10.0713 9.00797C10.3971 8.96064 10.6786 8.75607 10.8243 8.46093L14.1033 1.81698Z" fill="#FCC141"/>
</mask>
<g mask="url(#mask0_1_690)">
<rect width="15" height="30" fill="#FCC141"/>
</g>
</svg>
